<svg id="visual" viewBox="0 0 900 600" width="900" height="600" xmlns="http://www.w3.org/2000/svg" xmlns:xlink="http://www.w3.org/1999/xlink" version="1.1"><rect x="0" y="0" width="900" height="600" fill="#ffffff"></rect><path d="M0 503L6.3 499.5C12.7 496 25.3 489 37.8 479.8C50.3 470.7 62.7 459.3 75.2 444.8C87.7 430.3 100.3 412.7 112.8 420C125.3 427.3 137.7 459.7 150.2 468C162.7 476.3 175.3 460.7 187.8 446.7C200.3 432.7 212.7 420.3 225.2 416.5C237.7 412.7 250.3 417.3 262.8 425.8C275.3 434.3 287.7 446.7 300.2 462.5C312.7 478.3 325.3 497.7 337.8 495.8C350.3 494 362.7 471 375.2 453.3C387.7 435.7 400.3 423.3 412.8 423.3C425.3 423.3 437.7 435.7 450 435C462.3 434.3 474.7 420.7 487.2 430.2C499.7 439.7 512.3 472.3 525 489.7C537.7 507 550.3 509 562.8 496.7C575.3 484.3 587.7 457.7 600.2 435C612.7 412.3 625.3 393.7 637.8 400.7C650.3 407.7 662.7 440.3 675.2 462.5C687.7 484.7 700.3 496.3 712.8 480.3C725.3 464.3 737.7 420.7 750.2 420C762.7 419.3 775.3 461.7 787.8 465.5C800.3 469.3 812.7 434.7 825.2 420.5C837.7 406.3 850.3 412.7 862.8 415.3C875.3 418 887.7 417 893.8 416.5L900 416L900 601L893.8 601C887.7 601 875.3 601 862.8 601C850.3 601 837.7 601 825.2 601C812.7 601 800.3 601 787.8 601C775.3 601 762.7 601 750.2 601C737.7 601 725.3 601 712.8 601C700.3 601 687.7 601 675.2 601C662.7 601 650.3 601 637.8 601C625.3 601 612.7 601 600.2 601C587.7 601 575.3 601 562.8 601C550.3 601 537.7 601 525 601C512.3 601 499.7 601 487.2 601C474.7 601 462.3 601 450 601C437.7 601 425.3 601 412.8 601C400.3 601 387.7 601 375.2 601C362.7 601 350.3 601 337.8 601C325.3 601 312.7 601 300.2 601C287.7 601 275.3 601 262.8 601C250.3 601 237.7 601 225.2 601C212.7 601 200.3 601 187.8 601C175.3 601 162.7 601 150.2 601C137.7 601 125.3 601 112.8 601C100.3 601 87.7 601 75.2 601C62.7 601 50.3 601 37.8 601C25.3 601 12.7 601 6.3 601L0 601Z" fill="#0066FF" stroke-linecap="round" stroke-linejoin="miter"></path></svg>