<svg version="1.0" preserveAspectRatio="xMidYMid meet" viewBox="60 71.24999829000001 255.00000000000003 239.24999425800002" zoomAndPan="magnify" xmlns:xlink="http://www.w3.org/1999/xlink" xmlns="http://www.w3.org/2000/svg" style="max-height: 500px" width="255.00000000000003" height="239.24999425800002"><defs><g/><clipPath id="c0a1990439"><path clip-rule="nonzero" d="M 86.195312 76.078125 L 288.695312 76.078125 L 288.695312 278.578125 L 86.195312 278.578125 Z M 86.195312 76.078125"/></clipPath></defs><rect fill-opacity="1" height="449.999989" y="-37.499999" fill="#ffffff" width="450" x="-37.5"/><rect fill-opacity="1" height="449.999989" y="-37.499999" fill="#000000" width="450" x="-37.5"/><g clip-path="url(#c0a1990439)"><path fill-rule="nonzero" fill-opacity="1" d="M 187.5 278.683594 C 131.53125 278.683594 86.195312 233.035156 86.195312 177.378906 C 86.195312 121.726562 131.53125 76.078125 187.5 76.078125 C 243.464844 76.078125 288.800781 121.414062 288.800781 177.378906 C 288.800781 233.347656 243.152344 278.683594 187.5 278.683594 Z M 187.5 82.332031 C 134.972656 82.332031 92.449219 124.851562 92.449219 177.378906 C 92.449219 229.90625 134.972656 272.429688 187.5 272.429688 C 240.027344 272.429688 282.546875 229.90625 282.546875 177.378906 C 282.546875 124.851562 239.714844 82.332031 187.5 82.332031 Z M 187.5 82.332031" fill="#ffffff"/></g><path stroke-miterlimit="4" stroke-opacity="1" stroke-width="11.978925" stroke="#fffef9" d="M -1.58833 160.666968 C -2.343538 160.146135 -2.978955 159.510718 -3.499788 158.755509 C -4.353955 157.271134 -4.614372 153.969051 -4.27583 148.849259 C -3.968539 143.729467 -3.015413 136.333633 -1.43208 126.666966 C -0.364372 120.062799 1.182503 112.849256 3.208545 105.026339 C 5.234587 97.198214 7.468962 89.661755 9.916879 82.406546 C 10.432504 80.719046 11.047087 78.937796 11.745004 77.068004 C 12.448129 75.193004 12.958546 73.776337 13.265838 72.818004 C 13.786671 71.229462 14.526254 69.219045 15.489796 66.771128 C 16.453338 64.32842 17.463755 61.833628 18.531463 59.286753 C 19.599171 56.713836 20.609588 54.385711 21.57313 52.307586 C 22.536672 50.229461 23.224172 48.823211 23.640838 48.094044 C 24.396047 46.797169 25.057505 45.859669 25.630422 45.286752 C 26.224172 44.693002 26.953339 44.182585 27.812714 43.765919 C 28.875214 43.224252 29.646047 42.922169 30.114797 42.870085 C 30.60438 42.818002 31.271047 42.963835 32.099172 43.302377 C 34.338756 43.922169 35.807506 45.146127 36.505422 46.963835 C 37.208548 48.760711 37.286673 51.422169 36.739797 54.958628 C 36.427297 56.750294 35.791881 59.677378 34.828339 63.729462 C 33.870006 67.786753 32.750214 72.208629 31.47938 76.989879 C 30.203339 81.771129 28.91688 86.323213 27.614797 90.635713 C 26.343963 94.953422 25.29188 98.328422 24.458547 100.776339 C 24.120005 101.734672 23.82313 102.698214 23.562713 103.661756 C 23.302297 104.620089 23.120005 105.255506 23.015838 105.568006 C 22.911672 105.880506 22.745005 106.443006 22.51063 107.245089 C 22.302297 108.052381 22.04188 108.885715 21.72938 109.739881 C 21.312713 111.015923 20.599171 113.198215 19.583546 116.291965 C 18.57313 119.359674 17.47938 122.844049 16.307504 126.739882 C 15.140838 130.614883 13.995004 134.370091 12.880421 138.010716 C 11.760629 141.6253 10.875212 144.651342 10.224171 147.09405 C 9.161671 150.812801 8.302296 153.583634 7.651254 155.401343 C 7.031462 157.219051 6.521045 158.469051 6.13042 159.146134 C 5.771045 159.844051 5.328337 160.406551 4.807504 160.823218 C 4.052295 161.364885 2.984587 161.614885 1.609587 161.562801 C 0.229378 161.510718 -0.833122 161.208635 -1.58833 160.666968 Z M 30.526255 146.474259 C 28.083547 145.40655 26.406463 143.547175 25.495005 140.896133 C 24.583547 138.21905 24.505422 134.239883 25.26063 128.963841 C 25.989797 123.687799 27.521047 116.693007 29.859589 107.989881 C 30.614797 105.307589 31.526255 102.166964 32.588756 98.55238 C 33.656464 94.937797 34.698131 91.531547 35.708547 88.33363 C 36.724172 85.135713 37.437714 82.953421 37.854381 81.786754 C 41.468964 72.739879 44.823131 66.745087 47.916882 63.807587 C 51.010632 60.870086 54.052299 60.745086 57.036674 63.42217 C 58.104382 64.146128 58.739799 64.786753 58.948132 65.32842 C 59.156466 65.849253 59.312716 66.760712 59.416882 68.057587 C 59.416882 68.786754 59.495007 69.880504 59.651257 71.333629 C 59.807507 72.76592 59.948132 74.062796 60.078341 75.234671 C 60.286674 76.510712 60.442924 78.260713 60.547091 80.500296 C 60.651257 82.734671 60.703341 84.812796 60.703341 86.734671 C 60.911674 94.61488 61.146049 101.109672 61.406466 106.234673 C 61.692924 111.328423 62.067924 115.552382 62.536674 118.906549 C 63.005424 122.260715 63.614799 125.276341 64.370008 127.953424 C 64.812716 129.328424 65.213758 130.578424 65.578341 131.693008 C 65.942924 132.812799 66.177299 133.422174 66.281466 133.526341 C 66.489799 133.734674 67.021049 133.307591 67.880425 132.239883 C 68.734591 131.172174 69.593966 129.797174 70.453341 128.109674 C 71.620008 125.765924 72.7398 122.568007 73.807508 118.515923 C 74.870008 114.458632 75.843967 109.96384 76.729383 105.026339 C 77.640842 100.057589 78.380425 94.979464 78.953342 89.776338 C 79.5523 84.55238 79.911675 79.599254 80.041884 74.922171 C 80.250217 69.281545 80.536675 65.239878 80.901259 62.79717 C 81.265842 60.32842 81.875217 58.60967 82.734592 57.651336 C 84.239801 56.271128 85.838759 55.906544 87.531467 56.557586 C 89.245009 57.182586 90.521051 58.60967 91.349176 60.844045 C 92.625218 64.146128 92.146051 72.29717 89.911676 85.291963 C 89.286676 89.219047 88.698134 92.599255 88.156468 95.432589 C 87.635634 98.265922 87.073134 101.203422 86.479384 104.245089 C 85.906467 107.260714 85.140842 111.104465 84.177301 115.786757 C 82.151259 126.000299 79.562717 133.515924 76.416883 138.323216 C 73.297092 143.104467 69.713758 145.015925 65.656466 144.052383 C 64.276258 143.745092 62.729383 142.765925 61.015841 141.130508 C 59.328341 139.46905 58.000216 137.620091 57.036674 135.59405 C 56.599174 134.526341 56.192924 133.411758 55.82834 132.239883 C 55.468965 131.068008 55.036674 129.422174 54.541882 127.286757 C 54.073132 125.156549 53.463757 122.130507 52.708549 118.203423 C 51.958548 114.458632 51.307507 111.286756 50.760632 108.687798 C 50.239798 106.088839 49.927298 104.896131 49.823132 105.104464 C 49.724173 105.411756 49.370007 106.802381 48.771048 109.27634 C 48.20334 111.719048 47.562715 114.406548 46.864798 117.344048 C 46.187715 120.255507 45.64084 122.724257 45.224173 124.755507 C 44.677298 127.302382 44.005423 129.963841 43.198131 132.745091 C 42.416881 135.5003 41.651256 137.896133 40.896048 139.922175 C 40.140839 141.948217 39.505423 143.276342 38.984589 143.901342 C 38.333548 144.755509 37.427298 145.536759 36.255422 146.239884 C 35.088756 146.911759 34.073131 147.2503 33.213756 147.2503 C 33.109589 147.2503 32.760631 147.146134 32.161672 146.9378 C 31.588755 146.734675 31.047089 146.578425 30.526255 146.474259 Z M 132.71897 123.625299 C 133.03147 122.010715 133.239804 120.594049 133.34397 119.375299 C 133.474179 118.15134 133.484596 117.541965 133.380429 117.541965 C 133.25022 117.437798 132.328345 117.604465 130.614804 118.047173 C 128.922095 118.46384 126.963762 118.99509 124.724178 119.646132 C 122.489803 120.271132 120.099178 120.958632 117.552303 121.71384 C 115.005428 122.437799 112.974177 122.974257 111.468969 123.312799 L 106.359594 124.755507 L 103.984594 137.661758 C 103.125219 142.364883 102.37001 145.911759 101.718968 148.302384 C 101.099177 150.698217 100.43251 152.297176 99.734593 153.099259 C 99.05751 153.880509 98.187718 154.271134 97.12001 154.271134 C 95.948135 154.271134 94.833551 153.802384 93.765843 152.864884 C 92.703343 151.906551 92.062718 150.724259 91.854384 149.318009 C 91.750218 148.693009 91.776259 147.239884 91.932509 144.953425 C 92.088759 142.661758 92.375218 140.234675 92.791884 137.661758 C 93.234593 135.010716 93.55751 132.760716 93.765843 130.916966 C 93.974176 129.041966 94.02626 128.109674 93.922093 128.109674 C 93.817926 128.109674 93.114801 128.260716 91.817926 128.573216 C 90.541884 128.885716 89.114801 129.265924 87.526259 129.703424 C 83.578342 130.771133 80.83355 131.276341 79.3023 131.224258 C 77.765842 131.146133 76.297092 130.526341 74.89605 129.354466 C 74.062717 128.521132 73.515842 127.849257 73.255425 127.328424 C 72.968967 126.781549 72.776258 126.078424 72.672092 125.224257 C 72.567925 123.08884 73.635633 121.15134 75.870008 119.411757 C 78.104384 117.646132 81.83355 115.797173 87.057509 113.875298 C 88.854384 113.250298 90.635634 112.614881 92.401259 111.96384 C 94.172093 111.312798 95.364801 110.937798 95.989801 110.833631 L 98.21376 110.364881 L 100.630427 99.333631 C 101.797093 94.026339 103.125219 88.73988 104.604385 83.463838 C 106.114802 78.182587 107.609594 73.312796 109.088761 68.838837 C 110.573136 64.370087 111.948136 60.625295 113.224178 57.609669 C 114.521053 54.568003 115.588761 52.672169 116.422094 51.916961 C 117.823136 50.646127 119.265845 50.646127 120.75022 51.916961 C 121.708553 52.776336 122.192928 53.620086 122.192928 54.453419 C 122.088761 55.515919 121.708553 57.651336 121.06272 60.844045 C 120.43772 64.041962 119.698136 67.187795 118.838761 70.281545 C 118.396053 71.974254 117.823136 74.286754 117.125219 77.224254 C 116.448136 80.161754 115.708553 83.281546 114.901261 86.578421 C 114.120011 89.880505 113.354386 93.026338 112.599177 96.015922 C 111.843969 98.979464 111.260636 101.422172 110.843969 103.349256 C 110.427302 105.245089 110.218969 106.260714 110.218969 106.390923 C 110.218969 106.599256 110.479386 106.698214 111.000219 106.698214 C 111.208552 106.698214 112.224177 106.469048 114.041886 106.000298 C 115.859594 105.505506 118.021053 104.948214 120.515845 104.323214 C 123.010636 103.672173 125.505428 102.995089 128.00022 102.297172 C 130.521054 101.594047 132.630429 100.979464 134.317929 100.463839 C 136.031471 99.943006 136.942929 99.614881 137.047096 99.484672 C 137.255429 99.281547 137.567929 98.432589 137.984596 96.953422 C 138.427304 95.469047 138.854388 93.719047 139.271054 91.687797 C 141.088763 84.02113 143.088763 76.859671 145.276263 70.20342 C 147.458555 63.552378 149.666888 57.958628 151.901263 53.437794 C 154.140847 48.916961 156.09918 46.172169 157.791889 45.208627 C 158.547097 44.66696 159.130431 44.390919 159.547097 44.390919 C 159.989806 44.390919 160.573139 44.562794 161.302306 44.901335 C 162.599181 45.521127 163.510639 46.370085 164.031473 47.432585 C 164.573139 48.291961 164.755431 49.708627 164.573139 51.682586 C 164.422098 53.630503 163.911681 56.557586 163.052306 60.458628 C 162.224181 64.32842 160.843972 69.630504 158.922097 76.364879 C 157.208555 82.422171 155.890847 87.125296 154.984597 90.479463 C 154.09918 93.83363 153.463763 96.344047 153.073138 98.005505 C 152.708555 99.640922 152.552305 100.864881 152.604388 101.672172 C 152.656472 102.448214 152.734597 103.271131 152.838763 104.125298 C 153.047097 105.505506 153.09918 106.495089 152.995013 107.088839 C 152.890847 107.687798 152.47418 108.505506 151.745013 109.547173 C 149.927305 112.015923 147.797096 121.505507 145.354388 138.010716 C 144.182513 146.09405 143.140846 151.786759 142.234596 155.088843 C 141.323138 158.390926 140.229388 160.406551 138.958554 161.135718 C 137.995012 161.677385 137.218971 161.953426 136.620012 161.953426 C 136.047096 161.953426 135.229387 161.677385 134.161679 161.135718 C 132.474179 160.302385 131.25022 158.948218 130.495012 157.078426 C 129.745012 155.208634 129.416887 152.568009 129.521054 149.161759 C 129.62522 147.474259 129.833554 145.135717 130.146054 142.146133 C 130.484595 139.15655 130.885637 135.984675 131.354387 132.630508 C 131.849179 129.276341 132.302304 126.276341 132.71897 123.625299 Z M 186.531474 110.052381 C 186.870016 109.406548 187.375224 107.781548 188.052307 105.182589 C 188.755432 102.552381 189.557516 99.562797 190.468974 96.213839 C 191.380433 92.859672 192.146058 89.80238 192.771058 87.047171 C 193.937724 82.370088 194.979391 77.974254 195.89085 73.870087 C 196.7971 69.760712 197.510641 66.411753 198.031475 63.807587 C 198.57835 61.208628 198.802308 59.911753 198.698141 59.911753 C 198.698141 59.807586 197.864808 61.146128 196.198141 63.927378 C 194.562725 66.682587 192.484599 70.271129 189.963766 74.687796 C 187.463766 79.083629 184.776266 83.838838 181.890849 88.95863 C 179.031473 94.078422 176.286682 99.031547 173.661681 103.812798 C 171.062723 108.599256 168.854389 112.729465 167.036681 116.21384 C 165.239806 119.672174 164.187723 121.87009 163.875222 122.802382 L 174.870015 117.073215 C 178.406473 115.250298 181.203349 113.734673 183.255432 112.510715 C 185.333557 111.286756 186.427307 110.469048 186.531474 110.052381 Z M 201.385642 105.255506 C 201.385642 105.255506 201.838767 105.052381 202.750225 104.635714 C 203.661683 104.193006 204.646059 103.765923 205.713767 103.349256 C 206.781475 102.906547 207.521059 102.734672 207.937725 102.838839 C 209.651267 103.281547 210.745017 104.568006 211.213767 106.698214 C 211.708559 108.833631 211.885642 111.041965 211.760642 113.328423 C 211.656476 115.614882 211.604392 117.291965 211.604392 118.359673 C 211.604392 120.594049 210.354392 122.698215 207.8596 124.677382 C 205.364809 126.625299 202.411683 128.510716 199.005433 130.328424 L 194.833558 132.552383 L 191.328349 148.380509 C 190.364808 152.750301 189.401266 156.739884 188.442932 160.354468 C 187.505432 163.969051 186.870016 166.151343 186.531474 166.901343 C 185.593974 169.03676 184.245016 170.515927 182.474182 171.34926 C 180.708557 172.208635 178.927307 172.219052 177.13564 171.385719 C 175.963765 170.844052 174.974182 169.932594 174.172098 168.656552 C 173.364806 167.385718 172.963765 165.94301 172.963765 164.328426 C 172.963765 163.812801 173.245015 162.187801 173.817931 159.458634 C 174.41689 156.755509 175.093973 153.854467 175.849182 150.760717 C 176.599182 147.666967 177.213765 144.979467 177.677307 142.6878 C 178.172098 140.401342 178.302307 139.260717 178.067932 139.260717 C 177.963765 139.260717 177.13564 139.557592 175.57314 140.15655 C 174.04189 140.729467 172.234598 141.46905 170.156473 142.380508 C 168.099181 143.286758 166.057514 144.198217 164.031473 145.109675 C 162.005431 146.015925 160.354389 146.786759 159.078347 147.40655 C 157.364805 148.265925 156.245014 148.995092 155.729389 149.594051 C 155.182514 150.161759 154.646055 151.255509 154.13043 152.864884 C 153.479388 154.557593 152.922097 155.750301 152.453347 156.453426 C 151.958555 157.130509 151.297097 157.469051 150.463763 157.469051 C 149.812722 157.469051 149.203347 157.078426 148.63043 156.297176 C 148.031471 155.489884 147.734596 154.661759 147.734596 153.802384 C 147.734596 152.734676 147.302305 152.203426 146.448138 152.203426 C 145.38043 152.203426 144.354388 151.890926 143.364804 151.265926 C 142.354388 150.620092 141.677304 149.916967 141.338763 149.161759 C 141.026263 148.099259 141.172096 146.5003 141.765846 144.364884 C 142.338763 142.234675 143.260638 140.026342 144.53668 137.739883 C 145.807513 135.448216 147.406471 133.515924 149.333555 131.927383 C 151.047097 130.448216 152.218972 129.120091 152.843972 127.953424 C 154.218972 125.172174 156.088764 121.333632 158.458555 116.448215 C 160.797097 111.536756 163.448139 106.104464 166.411681 100.151339 C 169.401265 94.172172 172.521056 88.099255 175.771057 81.943004 C 179.015848 75.755504 182.213765 69.916962 185.359599 64.432587 C 188.505432 58.948211 191.406474 54.323211 194.057516 50.552377 C 196.708558 46.781544 198.995016 44.312794 200.916892 43.146127 C 203.255433 41.974252 205.416892 41.818002 207.39085 42.677377 C 209.364809 43.51071 210.562726 45.094044 210.979392 47.432585 C 211.187726 48.604461 211.083559 50.864877 210.666892 54.219044 C 210.250226 57.573211 209.640851 61.651336 208.833559 66.463837 C 208.026267 71.245087 207.067934 76.458629 205.948142 82.099254 C 204.82835 87.73988 203.635642 93.380505 202.3596 99.021131 C 201.812725 101.255506 201.489808 102.802381 201.385642 103.661756 C 201.281475 104.515923 201.255433 104.974256 201.307517 105.026339 C 201.3596 105.078423 201.385642 105.156548 201.385642 105.255506 Z M 205.380434 171.229469 C 204.312725 170.687802 203.338767 169.776344 202.45335 168.500302 C 201.5471 167.229468 200.974183 166.057593 200.739808 164.995093 C 200.635642 164.344051 200.651267 163.031551 200.781475 161.057593 C 200.885642 159.104468 201.010642 156.854468 201.166892 154.307592 C 201.323142 151.734676 201.531475 149.255509 201.791892 146.859675 C 202.052308 144.46905 202.302308 142.46905 202.531475 140.859675 C 203.364808 135.422175 204.823142 128.719049 206.901267 120.739882 C 208.979392 112.755506 211.541892 104.036756 214.583559 94.573214 C 217.625226 85.088838 220.953351 75.443004 224.562726 65.64092 C 229.140852 53.604461 232.932519 44.937794 235.948144 39.63571 C 238.989811 34.307585 241.745019 31.640918 244.213769 31.640918 C 245.047103 31.640918 245.942936 32.094043 246.906478 33.005501 C 247.87002 33.890918 248.40127 34.76071 248.505436 35.620085 C 248.609603 36.271126 248.333561 37.687793 247.687728 39.870085 C 247.062728 42.052377 245.890853 45.614877 244.177311 50.552377 C 242.489811 55.489878 239.989811 62.380503 236.692936 71.219045 C 233.078352 81.120088 230.036685 89.64613 227.567935 96.797172 C 225.125227 103.916964 223.109601 110.146131 221.52106 115.474257 C 219.937726 120.802382 218.687726 125.651341 217.781476 130.015924 C 216.870018 134.385716 216.088768 138.7503 215.437726 143.120092 C 215.333559 144.599259 215.208559 145.8753 215.052309 146.9378 C 214.896059 148.005509 214.870018 148.588842 214.974184 148.693009 C 215.078351 148.797175 215.713768 148.5628 216.880434 147.995092 C 218.052309 147.396134 219.442934 146.71905 221.05231 145.963842 C 224.875227 143.963842 228.916893 142.302383 233.182519 140.974258 C 237.442936 139.6253 241.224186 138.765925 244.526269 138.401341 C 247.828353 138.010716 249.958561 138.245091 250.922103 139.104466 C 253.052312 140.818008 253.052312 143.052383 250.922103 145.807592 C 250.166895 146.771134 249.156478 147.786759 247.880436 148.849259 C 246.609603 149.916967 244.578353 151.307592 241.797103 153.021134 C 239.041894 154.713843 235.104394 157.052384 229.984602 160.041968 C 226.682518 162.06801 223.510643 164.00551 220.468976 165.84926 C 217.453351 167.72426 215.515851 168.916968 214.661684 169.437802 C 211.359601 171.906552 208.26585 172.50551 205.380434 171.229469 Z M 263.984604 78.901338 C 262.297104 78.901338 260.968979 78.364879 260.010645 77.302379 C 256.604395 73.583629 259.854395 68.958629 269.755438 63.42217 C 273.265855 61.495086 275.396063 59.948211 276.151272 58.781545 C 277.84398 55.687794 279.59398 54.297169 281.416897 54.609669 C 282.479397 54.948211 283.015855 55.375294 283.015855 55.896128 C 283.015855 56.541961 283.276272 56.844044 283.791897 56.791961 C 284.338772 56.739878 285.510647 56.390919 287.302314 55.739878 C 289.875231 54.776336 292.620023 54.036753 295.531481 53.515919 C 298.468981 52.969044 301.182523 52.646127 303.682523 52.541961 C 306.203357 52.437794 308.09919 52.656544 309.375232 53.203419 C 311.817941 54.140919 313.140857 55.281544 313.349191 56.635711 C 313.557524 57.958628 312.713774 59.635711 310.81794 61.666961 C 309.750232 62.625295 308.385649 63.588837 306.718982 64.552378 C 305.083565 65.48467 302.771065 66.536753 299.781481 67.708628 C 296.791898 68.880504 292.698148 70.375295 287.500231 72.193004 L 277.59398 75.703421 L 275.489813 81.630504 C 274.96898 83.213838 274.515855 84.594046 274.12523 85.760713 C 273.760646 86.932588 273.578355 87.568005 273.578355 87.672171 C 274.12523 87.672171 275.880438 87.088838 278.84398 85.916963 C 284.614814 83.890921 288.875231 83.630505 291.630439 85.135713 C 293.557523 86.099255 294.427314 87.672171 294.245023 89.854463 C 294.088773 92.041963 292.958564 94.026339 290.854398 95.823214 C 290.099189 96.370089 289.213772 96.963839 288.198147 97.61488 C 287.187731 98.23988 285.666897 99.031547 283.640855 99.995089 C 281.609605 100.953422 278.739813 102.281547 275.021063 103.969048 C 272.890855 104.932589 271.015855 105.844048 269.406479 106.698214 C 267.823146 107.557589 266.922104 108.088839 266.713771 108.297173 C 266.510646 108.609673 266.104396 109.703423 265.505438 111.573215 C 264.937729 113.422173 264.297104 115.604465 263.599187 118.125298 C 262.922104 120.62009 262.260646 123.08884 261.609604 125.531549 C 260.958562 127.979466 260.479396 130.031549 260.166895 131.693008 C 259.854395 133.333633 259.750229 134.151341 259.854395 134.151341 C 259.958562 134.151341 260.401271 133.864883 261.177312 133.291966 C 261.984604 132.693008 262.922104 132.031549 263.984604 131.302383 C 267.182521 128.833632 270.885646 126.224257 275.099188 123.469049 C 279.31273 120.687799 283.484605 118.047173 287.614814 115.552382 C 291.776273 113.05759 295.427314 110.96384 298.573148 109.27634 C 301.718982 107.557589 303.771065 106.646131 304.734607 106.547173 C 307.177315 106.104464 309.271065 106.713839 311.010649 108.375298 C 312.776274 110.015923 313.557524 112.005506 313.349191 114.344048 C 313.140857 116.05759 312.286691 117.672173 310.776274 119.177382 C 309.297107 120.661757 306.698149 122.515924 302.979398 124.755507 C 297.75544 127.823216 293.192939 130.562799 289.291897 132.979466 C 285.416897 135.370091 282.15648 137.463841 279.505438 139.260717 C 273.864813 143.0003 269.328354 145.9378 265.896063 148.073217 C 262.489812 150.203426 259.854395 151.724259 257.979395 152.630509 C 256.135645 153.515926 254.68252 153.932592 253.614812 153.880509 C 252.547103 153.828426 251.43252 153.489884 250.260645 152.864884 C 249.843978 152.630509 249.375228 152.255509 248.859603 151.734676 C 248.312728 151.187801 247.93252 150.708634 247.729395 150.291967 C 247.078353 149.1253 246.854395 146.9378 247.062728 143.745092 C 247.271061 140.547175 247.859603 136.739883 248.817936 132.318008 C 249.781478 127.901341 251.067937 123.297174 252.677312 118.515923 C 253.198145 116.90134 253.614812 115.536757 253.927312 114.422173 C 254.265853 113.302381 254.43252 112.74509 254.43252 112.74509 C 254.328353 112.74509 254.05752 112.80759 253.614812 112.937798 C 253.198145 113.041965 252.718978 113.198215 252.172103 113.406548 C 250.27627 113.927382 248.468978 114.135715 246.750228 114.031548 C 245.036686 113.927382 243.812728 113.562798 243.088769 112.937798 C 242.021061 111.875298 241.541894 110.65134 241.646061 109.27634 C 241.750228 107.870089 242.385644 106.531548 243.557519 105.255506 C 244.724186 104.088839 246.698145 102.515922 249.479395 100.541964 C 252.234603 98.562797 254.953353 96.83363 257.630437 95.354464 L 261.453354 93.130505 L 263.677312 87.047171 C 264.323146 85.33363 264.885646 83.786755 265.349187 82.406546 C 265.843979 81.031546 266.146063 80.239879 266.250229 80.031546 C 266.458563 79.588838 266.390854 79.318004 266.052313 79.213838 C 265.739813 79.109671 265.052312 79.005504 263.984604 78.901338 Z M 263.984604 78.901338" stroke-linejoin="miter" fill="none" transform="matrix(0.75, 0, 0, 0.75, 69.32406, 90.163844)" stroke-linecap="butt"/><g fill-opacity="1" fill="#000000"><g transform="translate(70.531091, 207.913837)"><g><path d="M -2.390625 2.75 C -2.953125 2.351562 -3.429688 1.875 -3.828125 1.3125 C -4.472656 0.195312 -4.675781 -2.273438 -4.4375 -6.109375 C -4.195312 -9.941406 -3.476562 -15.492188 -2.28125 -22.765625 C -1.476562 -27.710938 -0.320312 -33.117188 1.1875 -38.984375 C 2.707031 -44.859375 4.390625 -50.507812 6.234375 -55.9375 C 6.628906 -57.21875 7.085938 -58.554688 7.609375 -59.953125 C 8.128906 -61.347656 8.507812 -62.40625 8.75 -63.125 C 9.144531 -64.320312 9.703125 -65.835938 10.421875 -67.671875 C 11.140625 -69.515625 11.894531 -71.394531 12.6875 -73.3125 C 13.488281 -75.226562 14.25 -76.960938 14.96875 -78.515625 C 15.6875 -80.078125 16.207031 -81.132812 16.53125 -81.6875 C 17.09375 -82.644531 17.59375 -83.34375 18.03125 -83.78125 C 18.46875 -84.226562 19.003906 -84.609375 19.640625 -84.921875 C 20.441406 -85.328125 21.019531 -85.546875 21.375 -85.578125 C 21.738281 -85.617188 22.238281 -85.519531 22.875 -85.28125 C 24.550781 -84.800781 25.648438 -83.882812 26.171875 -82.53125 C 26.691406 -81.175781 26.753906 -79.179688 26.359375 -76.546875 C 26.117188 -75.179688 25.640625 -72.984375 24.921875 -69.953125 C 24.203125 -66.921875 23.363281 -63.609375 22.40625 -60.015625 C 21.445312 -56.421875 20.488281 -53.003906 19.53125 -49.765625 C 18.570312 -46.535156 17.769531 -44 17.125 -42.15625 C 16.882812 -41.4375 16.664062 -40.71875 16.46875 -40 C 16.269531 -39.28125 16.128906 -38.800781 16.046875 -38.5625 C 15.972656 -38.320312 15.851562 -37.898438 15.6875 -37.296875 C 15.53125 -36.703125 15.332031 -36.085938 15.09375 -35.453125 C 14.769531 -34.492188 14.226562 -32.859375 13.46875 -30.546875 C 12.71875 -28.234375 11.898438 -25.617188 11.015625 -22.703125 C 10.140625 -19.785156 9.28125 -16.96875 8.4375 -14.25 C 7.601562 -11.539062 6.945312 -9.265625 6.46875 -7.421875 C 5.664062 -4.628906 5.023438 -2.550781 4.546875 -1.1875 C 4.066406 0.164062 3.6875 1.097656 3.40625 1.609375 C 3.132812 2.128906 2.796875 2.550781 2.390625 2.875 C 1.835938 3.269531 1.039062 3.445312 0 3.40625 C -1.039062 3.375 -1.835938 3.15625 -2.390625 2.75 Z M -2.390625 2.75"/></g></g></g><g fill-opacity="1" fill="#000000"><g transform="translate(91.252552, 207.913837)"><g><path d="M 0.953125 -7.90625 C -0.878906 -8.707031 -2.132812 -10.101562 -2.8125 -12.09375 C -3.488281 -14.09375 -3.546875 -17.066406 -2.984375 -21.015625 C -2.429688 -24.972656 -1.273438 -30.222656 0.484375 -36.765625 C 1.035156 -38.765625 1.710938 -41.117188 2.515625 -43.828125 C 3.316406 -46.546875 4.09375 -49.101562 4.84375 -51.5 C 5.601562 -53.894531 6.144531 -55.535156 6.46875 -56.421875 C 9.1875 -63.203125 11.703125 -67.691406 14.015625 -69.890625 C 16.328125 -72.085938 18.601562 -72.1875 20.84375 -70.1875 C 21.644531 -69.632812 22.125 -69.15625 22.28125 -68.75 C 22.4375 -68.351562 22.554688 -67.675781 22.640625 -66.71875 C 22.640625 -66.15625 22.695312 -65.332031 22.8125 -64.25 C 22.9375 -63.175781 23.039062 -62.203125 23.125 -61.328125 C 23.28125 -60.367188 23.394531 -59.050781 23.46875 -57.375 C 23.550781 -55.695312 23.59375 -54.140625 23.59375 -52.703125 C 23.757812 -46.796875 23.941406 -41.925781 24.140625 -38.09375 C 24.335938 -34.257812 24.613281 -31.082031 24.96875 -28.5625 C 25.332031 -26.050781 25.796875 -23.796875 26.359375 -21.796875 C 26.671875 -20.765625 26.96875 -19.828125 27.25 -18.984375 C 27.53125 -18.148438 27.710938 -17.691406 27.796875 -17.609375 C 27.953125 -17.453125 28.347656 -17.769531 28.984375 -18.5625 C 29.628906 -19.363281 30.269531 -20.40625 30.90625 -21.6875 C 31.78125 -23.4375 32.613281 -25.828125 33.40625 -28.859375 C 34.207031 -31.898438 34.945312 -35.273438 35.625 -38.984375 C 36.3125 -42.703125 36.875 -46.515625 37.3125 -50.421875 C 37.75 -54.335938 38.007812 -58.050781 38.09375 -61.5625 C 38.25 -65.800781 38.46875 -68.835938 38.75 -70.671875 C 39.03125 -72.503906 39.488281 -73.78125 40.125 -74.5 C 41.238281 -75.539062 42.4375 -75.820312 43.71875 -75.34375 C 45 -74.863281 45.957031 -73.785156 46.59375 -72.109375 C 47.550781 -69.628906 47.191406 -63.519531 45.515625 -53.78125 C 45.035156 -50.820312 44.59375 -48.285156 44.1875 -46.171875 C 43.789062 -44.054688 43.375 -41.859375 42.9375 -39.578125 C 42.5 -37.304688 41.921875 -34.414062 41.203125 -30.90625 C 39.679688 -23.238281 37.742188 -17.609375 35.390625 -14.015625 C 33.035156 -10.421875 30.34375 -8.984375 27.3125 -9.703125 C 26.269531 -9.941406 25.109375 -10.679688 23.828125 -11.921875 C 22.554688 -13.160156 21.5625 -14.535156 20.84375 -16.046875 C 20.519531 -16.847656 20.21875 -17.6875 19.9375 -18.5625 C 19.664062 -19.445312 19.347656 -20.6875 18.984375 -22.28125 C 18.628906 -23.875 18.171875 -26.148438 17.609375 -29.109375 C 17.046875 -31.898438 16.566406 -34.273438 16.171875 -36.234375 C 15.773438 -38.191406 15.535156 -39.085938 15.453125 -38.921875 C 15.367188 -38.679688 15.109375 -37.644531 14.671875 -35.8125 C 14.234375 -33.976562 13.753906 -31.960938 13.234375 -29.765625 C 12.710938 -27.566406 12.296875 -25.710938 11.984375 -24.203125 C 11.578125 -22.285156 11.070312 -20.285156 10.46875 -18.203125 C 9.875 -16.128906 9.296875 -14.332031 8.734375 -12.8125 C 8.179688 -11.300781 7.707031 -10.304688 7.3125 -9.828125 C 6.832031 -9.179688 6.148438 -8.597656 5.265625 -8.078125 C 4.390625 -7.566406 3.632812 -7.3125 3 -7.3125 C 2.914062 -7.3125 2.65625 -7.390625 2.21875 -7.546875 C 1.78125 -7.703125 1.359375 -7.820312 0.953125 -7.90625 Z M 0.953125 -7.90625"/></g></g></g><g fill-opacity="1" fill="#000000"><g transform="translate(136.169018, 207.913837)"><g><path d="M 32.703125 -25.03125 C 32.941406 -26.226562 33.097656 -27.285156 33.171875 -28.203125 C 33.253906 -29.128906 33.253906 -29.59375 33.171875 -29.59375 C 33.097656 -29.664062 32.421875 -29.539062 31.140625 -29.21875 C 29.867188 -28.90625 28.394531 -28.507812 26.71875 -28.03125 C 25.039062 -27.550781 23.242188 -27.03125 21.328125 -26.46875 C 19.410156 -25.914062 17.890625 -25.519531 16.765625 -25.28125 L 12.9375 -24.203125 L 11.140625 -14.5 C 10.503906 -10.976562 9.945312 -8.316406 9.46875 -6.515625 C 8.988281 -4.722656 8.488281 -3.523438 7.96875 -2.921875 C 7.445312 -2.328125 6.785156 -2.03125 5.984375 -2.03125 C 5.109375 -2.03125 4.269531 -2.390625 3.46875 -3.109375 C 2.675781 -3.828125 2.195312 -4.707031 2.03125 -5.75 C 1.957031 -6.226562 1.976562 -7.328125 2.09375 -9.046875 C 2.21875 -10.765625 2.4375 -12.582031 2.75 -14.5 C 3.070312 -16.488281 3.3125 -18.179688 3.46875 -19.578125 C 3.632812 -20.984375 3.675781 -21.6875 3.59375 -21.6875 C 3.507812 -21.6875 2.988281 -21.566406 2.03125 -21.328125 C 1.070312 -21.085938 -0.00390625 -20.804688 -1.203125 -20.484375 C -4.148438 -19.679688 -6.203125 -19.300781 -7.359375 -19.34375 C -8.523438 -19.382812 -9.625 -19.84375 -10.65625 -20.71875 C -11.300781 -21.363281 -11.722656 -21.882812 -11.921875 -22.28125 C -12.117188 -22.675781 -12.257812 -23.195312 -12.34375 -23.84375 C -12.414062 -25.4375 -11.613281 -26.890625 -9.9375 -28.203125 C -8.257812 -29.523438 -5.46875 -30.90625 -1.5625 -32.34375 C -0.195312 -32.820312 1.140625 -33.300781 2.453125 -33.78125 C 3.773438 -34.257812 4.675781 -34.535156 5.15625 -34.609375 L 6.828125 -34.96875 L 8.625 -43.234375 C 9.5 -47.234375 10.492188 -51.207031 11.609375 -55.15625 C 12.734375 -59.113281 13.851562 -62.769531 14.96875 -66.125 C 16.09375 -69.476562 17.132812 -72.289062 18.09375 -74.5625 C 19.050781 -76.84375 19.847656 -78.257812 20.484375 -78.8125 C 21.523438 -79.769531 22.601562 -79.769531 23.71875 -78.8125 C 24.4375 -78.175781 24.796875 -77.539062 24.796875 -76.90625 C 24.710938 -76.101562 24.429688 -74.503906 23.953125 -72.109375 C 23.472656 -69.710938 22.914062 -67.359375 22.28125 -65.046875 C 21.957031 -63.765625 21.535156 -62.023438 21.015625 -59.828125 C 20.503906 -57.628906 19.945312 -55.289062 19.34375 -52.8125 C 18.75 -50.34375 18.171875 -47.988281 17.609375 -45.75 C 17.046875 -43.519531 16.601562 -41.6875 16.28125 -40.25 C 15.96875 -38.8125 15.8125 -38.050781 15.8125 -37.96875 C 15.8125 -37.8125 16.007812 -37.734375 16.40625 -37.734375 C 16.570312 -37.734375 17.332031 -37.910156 18.6875 -38.265625 C 20.039062 -38.628906 21.65625 -39.050781 23.53125 -39.53125 C 25.414062 -40.007812 27.296875 -40.503906 29.171875 -41.015625 C 31.046875 -41.535156 32.617188 -41.992188 33.890625 -42.390625 C 35.171875 -42.796875 35.851562 -43.039062 35.9375 -43.125 C 36.09375 -43.28125 36.328125 -43.914062 36.640625 -45.03125 C 36.960938 -46.15625 37.285156 -47.472656 37.609375 -48.984375 C 38.960938 -54.734375 40.457031 -60.101562 42.09375 -65.09375 C 43.738281 -70.09375 45.398438 -74.285156 47.078125 -77.671875 C 48.753906 -81.066406 50.226562 -83.125 51.5 -83.84375 C 52.0625 -84.25 52.5 -84.453125 52.8125 -84.453125 C 53.132812 -84.453125 53.578125 -84.332031 54.140625 -84.09375 C 55.097656 -83.613281 55.773438 -82.972656 56.171875 -82.171875 C 56.578125 -81.535156 56.71875 -80.476562 56.59375 -79 C 56.476562 -77.519531 56.097656 -75.320312 55.453125 -72.40625 C 54.816406 -69.488281 53.78125 -65.515625 52.34375 -60.484375 C 51.0625 -55.929688 50.082031 -52.394531 49.40625 -49.875 C 48.726562 -47.363281 48.25 -45.488281 47.96875 -44.25 C 47.6875 -43.019531 47.566406 -42.101562 47.609375 -41.5 C 47.648438 -40.90625 47.710938 -40.285156 47.796875 -39.640625 C 47.953125 -38.609375 47.988281 -37.867188 47.90625 -37.421875 C 47.832031 -36.984375 47.515625 -36.367188 46.953125 -35.578125 C 45.597656 -33.734375 44 -26.625 42.15625 -14.25 C 41.28125 -8.1875 40.503906 -3.914062 39.828125 -1.4375 C 39.148438 1.039062 38.332031 2.554688 37.375 3.109375 C 36.65625 3.515625 36.070312 3.71875 35.625 3.71875 C 35.1875 3.71875 34.570312 3.515625 33.78125 3.109375 C 32.5 2.472656 31.578125 1.457031 31.015625 0.0625 C 30.460938 -1.332031 30.222656 -3.3125 30.296875 -5.875 C 30.378906 -7.144531 30.539062 -8.898438 30.78125 -11.140625 C 31.019531 -13.378906 31.316406 -15.753906 31.671875 -18.265625 C 32.035156 -20.785156 32.378906 -23.039062 32.703125 -25.03125 Z M 32.703125 -25.03125"/></g></g></g><g fill-opacity="1" fill="#000000"><g transform="translate(188.751229, 207.913837)"><g><path d="M 20.484375 -35.21875 C 20.722656 -35.695312 21.101562 -36.910156 21.625 -38.859375 C 22.144531 -40.816406 22.742188 -43.050781 23.421875 -45.5625 C 24.097656 -48.082031 24.675781 -50.382812 25.15625 -52.46875 C 26.03125 -55.976562 26.804688 -59.269531 27.484375 -62.34375 C 28.171875 -65.414062 28.710938 -67.929688 29.109375 -69.890625 C 29.503906 -71.847656 29.664062 -72.828125 29.59375 -72.828125 C 29.59375 -72.910156 28.972656 -71.910156 27.734375 -69.828125 C 26.492188 -67.753906 24.9375 -65.0625 23.0625 -61.75 C 21.1875 -58.4375 19.171875 -54.863281 17.015625 -51.03125 C 14.859375 -47.195312 12.800781 -43.484375 10.84375 -39.890625 C 8.882812 -36.296875 7.222656 -33.203125 5.859375 -30.609375 C 4.503906 -28.015625 3.707031 -26.359375 3.46875 -25.640625 L 11.734375 -29.953125 C 14.367188 -31.304688 16.460938 -32.441406 18.015625 -33.359375 C 19.578125 -34.273438 20.398438 -34.894531 20.484375 -35.21875 Z M 31.625 -38.8125 C 31.625 -38.8125 31.960938 -38.96875 32.640625 -39.28125 C 33.316406 -39.601562 34.050781 -39.921875 34.84375 -40.234375 C 35.644531 -40.554688 36.207031 -40.679688 36.53125 -40.609375 C 37.8125 -40.285156 38.628906 -39.320312 38.984375 -37.71875 C 39.347656 -36.125 39.488281 -34.46875 39.40625 -32.75 C 39.320312 -31.039062 39.28125 -29.785156 39.28125 -28.984375 C 39.28125 -27.304688 38.34375 -25.726562 36.46875 -24.25 C 34.59375 -22.78125 32.378906 -21.363281 29.828125 -20 L 26.71875 -18.328125 L 24.078125 -6.46875 C 23.359375 -3.195312 22.640625 -0.203125 21.921875 2.515625 C 21.203125 5.234375 20.722656 6.867188 20.484375 7.421875 C 19.765625 9.023438 18.742188 10.144531 17.421875 10.78125 C 16.109375 11.414062 14.773438 11.414062 13.421875 10.78125 C 12.535156 10.382812 11.789062 9.707031 11.1875 8.75 C 10.59375 7.789062 10.296875 6.710938 10.296875 5.515625 C 10.296875 5.109375 10.515625 3.882812 10.953125 1.84375 C 11.398438 -0.1875 11.898438 -2.359375 12.453125 -4.671875 C 13.015625 -6.984375 13.472656 -9 13.828125 -10.71875 C 14.191406 -12.4375 14.296875 -13.296875 14.140625 -13.296875 C 14.054688 -13.296875 13.4375 -13.078125 12.28125 -12.640625 C 11.125 -12.203125 9.765625 -11.640625 8.203125 -10.953125 C 6.648438 -10.273438 5.113281 -9.597656 3.59375 -8.921875 C 2.070312 -8.242188 0.832031 -7.664062 -0.125 -7.1875 C -1.394531 -6.550781 -2.226562 -6.007812 -2.625 -5.5625 C -3.03125 -5.125 -3.429688 -4.304688 -3.828125 -3.109375 C -4.304688 -1.835938 -4.722656 -0.941406 -5.078125 -0.421875 C -5.441406 0.0976562 -5.945312 0.359375 -6.59375 0.359375 C -7.070312 0.359375 -7.53125 0.0625 -7.96875 -0.53125 C -8.40625 -1.132812 -8.625 -1.753906 -8.625 -2.390625 C -8.625 -3.191406 -8.941406 -3.59375 -9.578125 -3.59375 C -10.378906 -3.59375 -11.160156 -3.832031 -11.921875 -4.3125 C -12.679688 -4.789062 -13.179688 -5.3125 -13.421875 -5.875 C -13.660156 -6.664062 -13.554688 -7.859375 -13.109375 -9.453125 C -12.671875 -11.054688 -11.972656 -12.71875 -11.015625 -14.4375 C -10.054688 -16.15625 -8.859375 -17.613281 -7.421875 -18.8125 C -6.148438 -19.925781 -5.273438 -20.921875 -4.796875 -21.796875 C -3.753906 -23.878906 -2.351562 -26.753906 -0.59375 -30.421875 C 1.15625 -34.097656 3.148438 -38.171875 5.390625 -42.640625 C 7.628906 -47.109375 9.960938 -51.660156 12.390625 -56.296875 C 14.828125 -60.929688 17.222656 -65.300781 19.578125 -69.40625 C 21.941406 -73.519531 24.117188 -76.992188 26.109375 -79.828125 C 28.109375 -82.671875 29.828125 -84.53125 31.265625 -85.40625 C 33.015625 -86.28125 34.628906 -86.398438 36.109375 -85.765625 C 37.585938 -85.128906 38.488281 -83.929688 38.8125 -82.171875 C 38.96875 -81.296875 38.882812 -79.597656 38.5625 -77.078125 C 38.25 -74.566406 37.789062 -71.515625 37.1875 -67.921875 C 36.59375 -64.328125 35.875 -60.410156 35.03125 -56.171875 C 34.195312 -51.941406 33.300781 -47.710938 32.34375 -43.484375 C 31.9375 -41.804688 31.691406 -40.644531 31.609375 -40 C 31.535156 -39.363281 31.519531 -39.023438 31.5625 -38.984375 C 31.601562 -38.941406 31.625 -38.882812 31.625 -38.8125 Z M 31.625 -38.8125"/></g></g></g><g fill-opacity="1" fill="#000000"><g transform="translate(228.038165, 207.913837)"><g><path d="M -4.671875 10.65625 C -5.472656 10.257812 -6.210938 9.582031 -6.890625 8.625 C -7.566406 7.664062 -7.984375 6.785156 -8.140625 5.984375 C -8.222656 5.503906 -8.222656 4.523438 -8.140625 3.046875 C -8.066406 1.578125 -7.96875 -0.113281 -7.84375 -2.03125 C -7.726562 -3.945312 -7.566406 -5.800781 -7.359375 -7.59375 C -7.160156 -9.394531 -6.984375 -10.894531 -6.828125 -12.09375 C -6.191406 -16.164062 -5.09375 -21.195312 -3.53125 -27.1875 C -1.976562 -33.175781 -0.0664062 -39.722656 2.203125 -46.828125 C 4.484375 -53.941406 6.984375 -61.171875 9.703125 -68.515625 C 13.140625 -77.535156 15.992188 -84.039062 18.265625 -88.03125 C 20.546875 -92.03125 22.601562 -94.03125 24.4375 -94.03125 C 25.070312 -94.03125 25.75 -93.6875 26.46875 -93 C 27.1875 -92.320312 27.585938 -91.664062 27.671875 -91.03125 C 27.753906 -90.550781 27.554688 -89.492188 27.078125 -87.859375 C 26.597656 -86.222656 25.71875 -83.546875 24.4375 -79.828125 C 23.15625 -76.117188 21.28125 -70.953125 18.8125 -64.328125 C 16.09375 -56.898438 13.8125 -50.507812 11.96875 -45.15625 C 10.132812 -39.800781 8.617188 -35.128906 7.421875 -31.140625 C 6.222656 -27.148438 5.285156 -23.515625 4.609375 -20.234375 C 3.929688 -16.960938 3.351562 -13.691406 2.875 -10.421875 C 2.789062 -9.304688 2.6875 -8.347656 2.5625 -7.546875 C 2.445312 -6.742188 2.429688 -6.304688 2.515625 -6.234375 C 2.597656 -6.148438 3.078125 -6.328125 3.953125 -6.765625 C 4.828125 -7.203125 5.863281 -7.703125 7.0625 -8.265625 C 9.9375 -9.785156 12.972656 -11.039062 16.171875 -12.03125 C 19.367188 -13.03125 22.203125 -13.671875 24.671875 -13.953125 C 27.148438 -14.234375 28.75 -14.054688 29.46875 -13.421875 C 31.0625 -12.140625 31.0625 -10.460938 29.46875 -8.390625 C 28.90625 -7.671875 28.144531 -6.910156 27.1875 -6.109375 C 26.226562 -5.304688 24.710938 -4.265625 22.640625 -2.984375 C 20.566406 -1.710938 17.613281 0.0390625 13.78125 2.28125 C 11.300781 3.789062 8.921875 5.242188 6.640625 6.640625 C 4.367188 8.046875 2.914062 8.945312 2.28125 9.34375 C -0.195312 11.175781 -2.515625 11.613281 -4.671875 10.65625 Z M -4.671875 10.65625"/></g></g></g><g fill-opacity="1" fill="#000000"><g transform="translate(258.102261, 207.913837)"><g><path d="M 9.21875 -58.578125 C 7.945312 -58.578125 6.953125 -58.972656 6.234375 -59.765625 C 3.671875 -62.566406 6.101562 -66.039062 13.53125 -70.1875 C 16.164062 -71.625 17.765625 -72.785156 18.328125 -73.671875 C 19.609375 -75.984375 20.925781 -77.019531 22.28125 -76.78125 C 23.082031 -76.539062 23.484375 -76.222656 23.484375 -75.828125 C 23.484375 -75.347656 23.679688 -75.125 24.078125 -75.15625 C 24.472656 -75.195312 25.351562 -75.457031 26.71875 -75.9375 C 28.632812 -76.65625 30.6875 -77.210938 32.875 -77.609375 C 35.070312 -78.015625 37.109375 -78.253906 38.984375 -78.328125 C 40.859375 -78.410156 42.273438 -78.253906 43.234375 -77.859375 C 45.078125 -77.140625 46.078125 -76.28125 46.234375 -75.28125 C 46.390625 -74.28125 45.75 -73.023438 44.3125 -71.515625 C 43.519531 -70.796875 42.503906 -70.078125 41.265625 -69.359375 C 40.023438 -68.640625 38.285156 -67.835938 36.046875 -66.953125 C 33.816406 -66.078125 30.742188 -64.960938 26.828125 -63.609375 L 19.40625 -60.96875 L 17.84375 -56.53125 C 17.445312 -55.332031 17.109375 -54.296875 16.828125 -53.421875 C 16.546875 -52.546875 16.40625 -52.066406 16.40625 -51.984375 C 16.8125 -51.984375 18.128906 -52.421875 20.359375 -53.296875 C 24.671875 -54.816406 27.867188 -55.019531 29.953125 -53.90625 C 31.378906 -53.1875 32.03125 -52.003906 31.90625 -50.359375 C 31.789062 -48.722656 30.9375 -47.226562 29.34375 -45.875 C 28.789062 -45.476562 28.132812 -45.039062 27.375 -44.5625 C 26.613281 -44.082031 25.472656 -43.484375 23.953125 -42.765625 C 22.441406 -42.046875 20.285156 -41.046875 17.484375 -39.765625 C 15.890625 -39.046875 14.492188 -38.363281 13.296875 -37.71875 C 12.097656 -37.082031 11.421875 -36.6875 11.265625 -36.53125 C 11.097656 -36.289062 10.796875 -35.472656 10.359375 -34.078125 C 9.921875 -32.679688 9.441406 -31.046875 8.921875 -29.171875 C 8.398438 -27.296875 7.898438 -25.4375 7.421875 -23.59375 C 6.941406 -21.757812 6.582031 -20.222656 6.34375 -18.984375 C 6.101562 -17.742188 6.023438 -17.125 6.109375 -17.125 C 6.191406 -17.125 6.53125 -17.34375 7.125 -17.78125 C 7.726562 -18.226562 8.425781 -18.726562 9.21875 -19.28125 C 11.613281 -21.125 14.390625 -23.082031 17.546875 -25.15625 C 20.703125 -27.226562 23.835938 -29.203125 26.953125 -31.078125 C 30.066406 -32.953125 32.800781 -34.53125 35.15625 -35.8125 C 37.507812 -37.09375 39.046875 -37.769531 39.765625 -37.84375 C 41.597656 -38.164062 43.171875 -37.707031 44.484375 -36.46875 C 45.804688 -35.226562 46.390625 -33.734375 46.234375 -31.984375 C 46.078125 -30.703125 45.4375 -29.503906 44.3125 -28.390625 C 43.195312 -27.273438 41.242188 -25.878906 38.453125 -24.203125 C 34.535156 -21.878906 31.117188 -19.816406 28.203125 -18.015625 C 25.296875 -16.222656 22.84375 -14.648438 20.84375 -13.296875 C 16.613281 -10.503906 13.21875 -8.304688 10.65625 -6.703125 C 8.101562 -5.109375 6.128906 -3.972656 4.734375 -3.296875 C 3.335938 -2.617188 2.238281 -2.296875 1.4375 -2.328125 C 0.632812 -2.367188 -0.203125 -2.628906 -1.078125 -3.109375 C -1.398438 -3.273438 -1.757812 -3.554688 -2.15625 -3.953125 C -2.550781 -4.347656 -2.832031 -4.707031 -3 -5.03125 C -3.476562 -5.90625 -3.632812 -7.539062 -3.46875 -9.9375 C -3.3125 -12.332031 -2.875 -15.1875 -2.15625 -18.5 C -1.4375 -21.820312 -0.476562 -25.28125 0.71875 -28.875 C 1.113281 -30.0625 1.429688 -31.070312 1.671875 -31.90625 C 1.910156 -32.75 2.03125 -33.171875 2.03125 -33.171875 C 1.957031 -33.171875 1.757812 -33.128906 1.4375 -33.046875 C 1.113281 -32.972656 0.753906 -32.859375 0.359375 -32.703125 C -1.078125 -32.296875 -2.429688 -32.132812 -3.703125 -32.21875 C -4.984375 -32.300781 -5.90625 -32.582031 -6.46875 -33.0625 C -7.269531 -33.851562 -7.628906 -34.769531 -7.546875 -35.8125 C -7.460938 -36.851562 -6.984375 -37.851562 -6.109375 -38.8125 C -5.234375 -39.6875 -3.753906 -40.863281 -1.671875 -42.34375 C 0.398438 -43.820312 2.4375 -45.117188 4.4375 -46.234375 L 7.3125 -47.90625 L 8.984375 -52.46875 C 9.460938 -53.738281 9.878906 -54.894531 10.234375 -55.9375 C 10.597656 -56.976562 10.820312 -57.578125 10.90625 -57.734375 C 11.0625 -58.054688 11.019531 -58.253906 10.78125 -58.328125 C 10.539062 -58.410156 10.019531 -58.492188 9.21875 -58.578125 Z M 9.21875 -58.578125"/></g></g></g><path stroke-miterlimit="4" stroke-opacity="1" stroke-width="11.978925" stroke="#fffef9" d="M 67.489122 122.802862 C 66.423492 122.387927 65.885961 122.284193 65.885961 122.491661 C 65.782227 122.595394 65.612481 123.048052 65.376722 123.859063 C 65.169254 124.660643 64.914634 125.594249 64.603432 126.65988 C 63.849003 129.630443 62.962549 132.827335 61.953501 136.259987 C 60.963313 139.664347 60.08629 142.63491 59.341291 145.181107 C 58.586862 147.736735 58.105914 149.330466 57.898446 149.981161 C 57.47408 151.357993 57.426928 152.04641 57.73813 152.04641 C 57.841864 152.04641 59.463886 151.282551 62.613626 149.745402 C 65.753936 148.189392 69.460068 146.397624 73.722591 144.370096 C 87.038259 137.759414 97.656845 131.997464 105.578348 127.055955 C 113.509281 122.114446 119.705027 117.465278 124.184449 113.099022 L 127.381341 109.90213 L 124.957738 109.543776 C 123.684639 109.336308 121.85515 109.289156 119.459838 109.39289 C 117.073957 109.496624 114.584342 109.713522 112.009853 110.053015 C 109.463656 110.364217 107.181509 110.732001 105.153981 111.146937 C 92.592741 113.721425 83.341558 117.022052 77.391001 121.048815 C 75.778409 122.350205 74.49588 123.104634 73.533983 123.312102 C 72.694681 123.623304 71.695063 123.727038 70.525698 123.623304 C 69.356334 123.51957 68.347285 123.246089 67.489122 122.802862 Z M 81.8327 66.927978 C 81.521499 68.201076 80.936816 70.200313 80.078653 72.935117 C 79.248782 75.641631 78.456631 78.263271 77.702203 80.809468 C 73.986641 92.63514 72.12886 99.085506 72.12886 100.151137 C 72.12886 100.566073 72.251454 100.698098 72.515504 100.537782 C 72.779555 100.386896 73.43968 99.877657 74.50531 99.019494 C 75.674675 98.161331 78.466062 96.199816 82.888901 93.134949 C 87.302309 90.041791 92.922804 86.203634 99.731524 81.629909 C 103.994047 78.640485 108.228279 75.594479 112.44365 72.501321 C 116.659021 69.408162 120.082242 66.748801 122.741603 64.513805 C 123.910968 63.5802 125.306661 62.344823 126.947544 60.807674 C 128.616718 59.251664 130.078424 57.808819 131.351522 56.479138 C 132.624621 55.130597 133.265885 54.404459 133.265885 54.291295 C 133.265885 54.083827 132.303989 53.980093 130.380195 53.980093 C 128.484693 53.980093 126.089381 54.064966 123.203691 54.215852 C 120.346292 54.376168 117.394589 54.621357 114.358013 54.96085 C 111.312007 55.272052 108.624354 55.630406 106.285625 56.054772 C 103.843161 56.488569 101.042344 57.092112 97.902034 57.846541 C 94.752294 58.572678 91.885464 59.336538 89.282685 60.147549 C 86.679906 60.949129 85.010732 61.562103 84.256303 61.977038 C 83.501874 62.28824 82.690863 63.938553 81.8327 66.927978 Z M 62.066665 75.547327 C 62.585335 74.170494 62.792803 73.350053 62.689069 73.086003 C 62.585335 72.803092 62.057235 72.605055 61.095338 72.501321 C 59.605341 72.190119 58.568002 71.294234 57.973889 69.813668 C 57.398637 68.30481 57.47408 66.814813 58.209648 65.334247 C 58.747178 64.37235 60.001416 63.014378 61.953501 61.279192 C 63.924446 59.506284 65.772797 58.09173 67.489122 57.026099 C 68.762221 56.167937 69.629814 55.451229 70.101332 54.885408 C 70.591711 54.281864 71.270697 53.140791 72.12886 51.452756 C 73.298224 48.6708 74.618475 46.209476 76.099041 44.078215 C 77.589038 41.946953 78.701821 40.673855 79.45625 40.258919 C 81.898713 38.98582 84.029974 39.297022 85.850034 41.192524 C 86.604463 41.843219 87.05712 42.39018 87.217436 42.833407 C 87.368322 43.248343 87.453195 43.993341 87.453195 45.058972 C 87.453195 46.435805 87.632372 47.171373 88.000156 47.275107 C 88.35851 47.378841 89.725912 47.124221 92.092932 46.501817 C 101.344116 44.031063 112.245612 42.531636 124.806852 42.012966 C 131.096903 41.805498 135.698918 42.050687 138.603469 42.757964 C 141.545742 43.42752 143.705294 44.832643 145.082127 46.963905 C 147.864083 50.886935 147.175667 55.837874 143.016878 61.816722 C 141.526881 64.061148 139.39562 66.541333 136.613663 69.266707 C 133.859998 71.97322 130.24817 75.160682 125.778179 78.819662 C 121.308189 82.488072 115.668833 86.929772 108.860113 92.154191 C 106.285625 94.077985 104.748476 95.313362 104.258097 95.860323 C 103.786579 96.378993 104.031769 96.539309 104.993665 96.331841 C 105.64436 96.096082 107.011762 95.926336 109.086442 95.822602 C 111.170551 95.718868 113.48099 95.662285 116.027187 95.662285 C 118.582814 95.662285 120.921544 95.662285 123.052805 95.662285 C 125.184067 95.662285 126.626912 95.766019 127.381341 95.973487 C 136.632524 97.689813 141.262831 101.744868 141.262831 108.148083 C 141.366565 112.825541 138.697773 117.983948 133.265885 123.623304 C 127.833998 129.262659 119.110915 136.127962 107.106066 144.20978 C 90.593505 155.073555 76.05189 163.381703 63.471789 169.124792 C 58.79433 171.256054 55.305097 172.614026 53.02295 173.179847 C 50.731372 173.78339 48.675554 173.868263 46.855494 173.453328 C 43.894361 172.595165 42.008289 170.699662 41.206708 167.75739 C 40.395697 164.852839 41.008671 162.221768 43.036198 159.883039 C 43.3474 159.439812 43.479425 159.062598 43.432273 158.751396 C 43.375691 158.440194 43.139932 157.80836 42.724996 156.846463 C 42.31006 155.884566 42.04601 155.064125 41.942276 154.385139 C 41.819682 153.687292 41.800821 152.31989 41.904555 150.292363 C 42.140314 147.406672 42.866452 143.096998 44.092398 137.344478 C 45.308915 131.601389 46.883785 125.141592 48.807579 117.965088 C 50.703081 110.769723 52.824912 103.451763 55.163641 96.020639 C 57.530662 88.561224 59.83167 81.733643 62.066665 75.547327 Z M 163.942848 96.793929 C 163.188419 98.821456 162.301965 101.226198 161.292916 104.008154 C 160.274437 106.76182 159.453996 109.043967 158.831592 110.835735 C 156.804065 116.163889 155.464954 119.813438 154.814259 121.793814 C 154.191855 123.764759 154.040969 124.698365 154.352171 124.594631 C 154.559639 124.472036 155.323498 124.217416 156.653179 123.859063 C 158.001721 123.491279 159.520009 123.085773 161.217473 122.651977 C 164.093733 121.916409 166.1024 121.378878 167.215183 121.011094 C 168.337395 120.624449 169.054103 120.162362 169.365305 119.643692 C 169.676507 119.096731 169.997139 118.238568 170.336632 117.069203 C 170.5441 116.003573 170.855302 114.62674 171.270237 112.938706 C 171.713464 111.22238 172.354729 108.685613 173.184601 105.337835 C 174.042763 101.980627 175.278141 97.331459 176.890732 91.380902 C 178.475033 85.29832 179.880156 79.706116 181.096673 74.613721 C 182.32262 69.493036 183.152491 65.437981 183.595718 62.448556 C 183.803186 61.071724 184.038945 59.770334 184.293565 58.544387 C 184.557615 57.327871 184.736792 56.545151 184.840526 56.205658 C 185.076285 55.375786 184.915969 55.140027 184.378438 55.507811 C 183.850338 55.866165 182.84129 57.016669 181.332432 58.940462 C 179.748131 60.854826 178.39959 62.674885 177.277377 64.391211 C 176.155164 66.088676 175.042382 68.153924 173.920169 70.596388 C 172.807386 73.038851 171.468275 76.311186 169.912266 80.422823 C 168.375117 84.52503 166.385311 89.985209 163.942848 96.793929 Z M 128.965641 149.981161 C 128.861907 149.981161 128.578996 150.084895 128.107478 150.292363 C 127.6171 150.499831 126.994696 150.707299 126.240267 150.914766 C 122.732173 152.216156 120.384013 151.80122 119.214649 149.669959 C 117.187121 145.718638 121.232746 140.645104 131.342092 134.458788 L 135.830943 131.931451 L 138.207394 126.160071 C 138.961823 124.57577 140.121757 121.9447 141.677767 118.28572 C 143.214916 114.589019 144.667191 110.939469 146.044024 107.327641 C 148.486487 101.160186 150.617748 95.954627 152.437808 91.692104 C 154.257868 87.429581 155.936472 83.666867 157.47362 80.422823 C 159.001339 77.169349 160.519627 74.0479 162.028484 71.058475 C 165.649743 64.042287 169.365305 57.987996 173.184601 52.895602 C 177.032188 47.774916 180.332814 44.455429 183.086479 42.946571 C 186.490839 41.154803 189.574567 41.060499 192.328232 42.673091 C 195.110188 44.257391 196.873666 47.190234 197.628095 51.452756 C 198.071321 53.687752 198.02417 56.960087 197.477209 61.279192 C 196.958539 65.560575 195.94006 71.331956 194.431202 78.583903 C 192.950636 85.816989 190.819374 94.964439 188.037418 106.035682 C 187.31128 109.025106 186.670016 111.609025 186.132485 113.796868 C 185.604385 115.984712 185.349765 117.172937 185.349765 117.380405 C 185.246031 117.823632 185.293183 118.153695 185.500651 118.361163 C 185.708119 118.568631 186.349384 118.776099 187.415014 118.983567 C 189.546276 119.294768 190.611906 120.63388 190.611906 123.0009 C 190.611906 125.339629 188.754125 127.46146 185.038564 129.356963 C 184.284135 129.80019 183.605149 130.196265 183.011036 130.564049 C 182.435784 130.931833 182.096291 131.177022 181.992557 131.309047 C 181.888823 131.412781 181.671925 132.101198 181.332432 133.374296 C 181.02123 134.647395 180.606294 136.127962 180.087624 137.815996 C 178.371299 144.313514 176.82472 149.236162 175.447887 152.593371 C 174.071054 155.950579 172.675361 158.053549 171.270237 158.911712 C 169.789671 159.769875 168.299674 159.949052 166.790816 159.458673 C 165.31025 158.987155 164.254049 158.015828 163.631646 156.535261 C 163.292153 155.884566 163.122406 154.630328 163.122406 152.791408 C 163.122406 150.914766 163.22614 148.868378 163.433608 146.623953 C 163.669367 144.388957 163.989999 142.521746 164.414366 141.012888 C 164.621833 139.947257 164.80101 139.079664 164.951896 138.400678 C 165.140503 137.702832 165.178225 137.344478 165.074491 137.344478 C 164.942466 137.344478 163.989999 137.617958 162.226522 138.164919 C 160.481905 138.683589 158.388365 139.372005 155.945902 140.230168 C 153.295971 141.088331 151.164709 141.871051 149.552118 142.568898 C 147.967817 143.247884 147.071933 143.69111 146.864465 143.898578 C 146.760731 144.002312 146.355226 145.067943 145.657379 147.095471 C 144.950102 149.122998 144.12023 151.461727 143.158333 154.111659 C 141.781501 158.166714 140.70644 161.241011 139.92372 163.31569 C 139.122139 165.3998 138.480875 166.880366 138.009357 167.75739 C 137.518978 168.672135 136.943726 169.454855 136.293031 170.10555 C 135.331134 170.963712 134.190061 171.491813 132.86981 171.699281 C 131.54013 171.906749 130.399056 171.755863 129.437159 171.227763 C 127.852859 170.3696 126.928683 169.162514 126.664633 167.606504 C 126.381722 166.069355 126.617481 163.551449 127.37191 160.043355 C 127.994314 156.950197 128.475262 154.507734 128.814755 152.706535 C 129.125957 150.895906 129.173109 149.981161 128.965641 149.981161 Z M 272.37313 58.157743 C 271.100032 60.807674 269.553453 64.164882 267.733393 68.219937 C 265.941625 72.246701 264.055552 76.386629 262.075177 80.658582 C 260.104232 84.921105 258.378476 88.749831 256.888479 92.154191 C 255.407912 95.558552 254.342281 98.001015 253.691587 99.491012 C 253.380385 100.141707 252.607095 101.876893 251.352857 104.715431 C 250.136341 107.516248 248.834951 110.571685 247.458118 113.872311 C 241.611295 127.291714 236.632065 138.608146 232.520428 147.840469 C 228.437082 157.03507 225.032722 164.485055 222.307347 170.180993 C 219.600834 175.8675 217.39413 180.148883 215.677804 183.006283 C 213.98977 185.891973 212.612937 187.815766 211.547306 188.777663 C 209.623513 190.493989 207.699719 191.022089 205.775926 190.380824 C 203.748398 189.626396 202.607325 188.409879 202.343275 186.750136 C 202.079225 185.109253 202.588464 182.808245 203.861563 179.847112 C 204.380233 178.677747 204.851751 177.536674 205.266686 176.414461 C 205.709913 175.301678 206.030546 174.471807 206.238013 173.924846 C 206.784974 172.444279 207.831744 169.369982 209.359463 164.720814 C 210.924903 160.090507 212.594076 155.073555 214.395275 149.669959 C 215.253438 146.888003 216.337929 143.634528 217.66761 139.918966 C 219.016152 136.175113 220.062922 133.081955 220.789059 130.639492 C 222.920321 124.688934 224.485761 120.190653 225.50424 117.154077 C 226.513288 114.10807 227.211135 112.052252 227.569488 110.986621 C 227.956133 109.92099 228.154171 109.39289 228.154171 109.39289 C 228.154171 109.39289 227.701514 109.581497 226.786769 109.977572 C 225.881454 110.335926 224.787532 110.798014 223.514434 111.344975 C 221.486906 112.071112 219.940327 112.570921 218.874696 112.863263 C 217.809066 113.117882 216.319069 113.30649 214.395275 113.410224 C 207.680859 113.825159 202.314984 111.637316 198.28822 106.856123 C 192.960066 100.254871 191.517221 91.314889 193.959684 80.026748 C 194.506645 77.584285 195.468542 74.632582 196.845375 71.18107 C 198.222207 67.691837 199.778217 64.278046 201.522833 60.920838 C 203.295741 57.57306 204.927193 54.828825 206.436051 52.697564 C 207.916618 50.670036 209.604652 49.368647 211.509585 48.793395 C 213.433378 48.199282 215.234577 48.274725 216.922612 49.029154 C 218.638937 49.783583 219.770581 51.226428 220.317541 53.357689 C 220.525009 54.42332 220.374124 56.384835 219.846023 59.251664 C 219.619695 60.421029 219.393366 61.675267 219.185898 63.033239 C 218.97843 64.353489 218.827544 65.334247 218.723811 65.956651 C 218.620077 67.361774 218.290014 68.436835 217.743053 69.191264 C 217.224383 69.917402 216.696283 69.955123 216.149322 69.304428 C 215.83812 68.785759 215.526918 68.776328 215.206286 69.266707 C 214.895084 69.738225 214.366984 70.869868 213.612555 72.661637 C 211.999964 76.716692 210.962624 80.743455 210.491106 84.751359 C 210.029018 88.72154 210.151613 91.729825 210.877751 93.757353 C 211.320978 94.511782 211.65104 94.99273 211.858508 95.200198 C 212.065976 95.407666 212.69781 95.5114 213.763441 95.5114 C 215.894702 95.5114 218.742671 94.238301 222.307347 91.692104 C 225.872024 89.117615 229.295244 85.920723 232.605301 82.101427 C 236.443458 77.518272 239.64978 73.218028 242.195977 69.191264 C 244.742175 65.136209 247.184638 60.496472 249.523367 55.272052 C 251.135959 51.660224 252.654247 48.472763 254.087662 45.719097 C 255.511646 42.937141 256.93563 40.579551 258.331324 38.655757 C 260.028789 36.10956 262.037455 34.440386 264.376185 33.629375 C 266.743205 32.827795 269.006492 32.742922 271.166044 33.393616 C 273.344457 34.01602 275.098504 35.298549 276.428185 37.212912 C 277.776727 39.136706 278.295397 41.532017 277.984195 44.389417 C 277.8616 45.040111 277.286348 46.614982 276.267869 49.114027 C 275.287112 51.603642 273.985722 54.621357 272.37313 58.157743 Z M 272.37313 58.157743" stroke-linejoin="miter" fill="none" transform="matrix(0.414221, 0, 0, 0.414221, 122.232112, 226.722362)" stroke-linecap="butt"/><g fill-opacity="1" fill="#000000"><g transform="translate(143.435031, 291.755004)"><g><path d="M 6.75 -14.15625 C 6.3125 -14.332031 6.09375 -14.378906 6.09375 -14.296875 C 6.039062 -14.242188 5.96875 -14.050781 5.875 -13.71875 C 5.789062 -13.394531 5.6875 -13.007812 5.5625 -12.5625 C 5.25 -11.332031 4.882812 -10.007812 4.46875 -8.59375 C 4.050781 -7.1875 3.6875 -5.953125 3.375 -4.890625 C 3.0625 -3.835938 2.863281 -3.175781 2.78125 -2.90625 C 2.601562 -2.332031 2.582031 -2.046875 2.71875 -2.046875 C 2.757812 -2.046875 3.429688 -2.363281 4.734375 -3 C 6.035156 -3.644531 7.566406 -4.382812 9.328125 -5.21875 C 14.835938 -7.957031 19.234375 -10.351562 22.515625 -12.40625 C 25.804688 -14.457031 28.378906 -16.382812 30.234375 -18.1875 L 31.5625 -19.515625 L 30.5625 -19.640625 C 30.03125 -19.734375 29.269531 -19.753906 28.28125 -19.703125 C 27.289062 -19.660156 26.265625 -19.570312 25.203125 -19.4375 C 24.148438 -19.3125 23.203125 -19.160156 22.359375 -18.984375 C 17.148438 -17.929688 13.3125 -16.566406 10.84375 -14.890625 C 10.1875 -14.359375 9.660156 -14.046875 9.265625 -13.953125 C 8.910156 -13.828125 8.488281 -13.785156 8 -13.828125 C 7.519531 -13.867188 7.101562 -13.976562 6.75 -14.15625 Z M 12.703125 -37.3125 C 12.566406 -36.78125 12.320312 -35.953125 11.96875 -34.828125 C 11.613281 -33.703125 11.285156 -32.613281 10.984375 -31.5625 C 9.441406 -26.664062 8.671875 -23.992188 8.671875 -23.546875 C 8.671875 -23.367188 8.722656 -23.3125 8.828125 -23.375 C 8.941406 -23.445312 9.21875 -23.660156 9.65625 -24.015625 C 10.144531 -24.367188 11.300781 -25.179688 13.125 -26.453125 C 14.957031 -27.734375 17.285156 -29.320312 20.109375 -31.21875 C 21.867188 -32.457031 23.617188 -33.71875 25.359375 -35 C 27.109375 -36.28125 28.535156 -37.378906 29.640625 -38.296875 C 30.117188 -38.703125 30.703125 -39.222656 31.390625 -39.859375 C 32.078125 -40.492188 32.679688 -41.085938 33.203125 -41.640625 C 33.734375 -42.191406 34 -42.488281 34 -42.53125 C 34 -42.625 33.601562 -42.671875 32.8125 -42.671875 C 32.019531 -42.671875 31.023438 -42.632812 29.828125 -42.5625 C 28.640625 -42.5 27.414062 -42.398438 26.15625 -42.265625 C 24.90625 -42.140625 23.796875 -41.988281 22.828125 -41.8125 C 21.804688 -41.632812 20.644531 -41.390625 19.34375 -41.078125 C 18.050781 -40.773438 16.863281 -40.457031 15.78125 -40.125 C 14.695312 -39.789062 14 -39.535156 13.6875 -39.359375 C 13.382812 -39.234375 13.054688 -38.550781 12.703125 -37.3125 Z M 4.5 -33.734375 C 4.71875 -34.304688 4.804688 -34.648438 4.765625 -34.765625 C 4.722656 -34.878906 4.503906 -34.957031 4.109375 -35 C 3.484375 -35.125 3.050781 -35.492188 2.8125 -36.109375 C 2.570312 -36.734375 2.601562 -37.351562 2.90625 -37.96875 C 3.125 -38.363281 3.640625 -38.925781 4.453125 -39.65625 C 5.273438 -40.382812 6.039062 -40.96875 6.75 -41.40625 C 7.28125 -41.757812 7.644531 -42.054688 7.84375 -42.296875 C 8.039062 -42.546875 8.316406 -43.023438 8.671875 -43.734375 C 9.148438 -44.878906 9.695312 -45.890625 10.3125 -46.765625 C 10.9375 -47.648438 11.398438 -48.179688 11.703125 -48.359375 C 12.722656 -48.890625 13.609375 -48.757812 14.359375 -47.96875 C 14.660156 -47.695312 14.84375 -47.472656 14.90625 -47.296875 C 14.976562 -47.117188 15.015625 -46.8125 15.015625 -46.375 C 15.015625 -45.800781 15.09375 -45.492188 15.25 -45.453125 C 15.40625 -45.410156 15.96875 -45.519531 16.9375 -45.78125 C 20.769531 -46.789062 25.289062 -47.40625 30.5 -47.625 C 33.101562 -47.71875 35.007812 -47.617188 36.21875 -47.328125 C 37.4375 -47.046875 38.332031 -46.460938 38.90625 -45.578125 C 40.050781 -43.953125 39.765625 -41.898438 38.046875 -39.421875 C 37.421875 -38.503906 36.535156 -37.484375 35.390625 -36.359375 C 34.242188 -35.234375 32.742188 -33.90625 30.890625 -32.375 C 29.035156 -30.851562 26.695312 -29.015625 23.875 -26.859375 C 22.820312 -26.066406 22.195312 -25.554688 22 -25.328125 C 21.800781 -25.109375 21.898438 -25.046875 22.296875 -25.140625 C 22.554688 -25.222656 23.113281 -25.285156 23.96875 -25.328125 C 24.832031 -25.378906 25.796875 -25.40625 26.859375 -25.40625 C 27.921875 -25.40625 28.890625 -25.40625 29.765625 -25.40625 C 30.648438 -25.40625 31.25 -25.359375 31.5625 -25.265625 C 35.394531 -24.566406 37.3125 -22.894531 37.3125 -20.25 C 37.351562 -18.300781 36.25 -16.160156 34 -13.828125 C 31.75 -11.492188 28.132812 -8.648438 23.15625 -5.296875 C 16.320312 -0.796875 10.300781 2.644531 5.09375 5.03125 C 3.15625 5.90625 1.710938 6.460938 0.765625 6.703125 C -0.179688 6.953125 -1.03125 6.988281 -1.78125 6.8125 C -3.019531 6.457031 -3.800781 5.671875 -4.125 4.453125 C -4.457031 3.242188 -4.207031 2.15625 -3.375 1.1875 C -3.238281 1.007812 -3.179688 0.851562 -3.203125 0.71875 C -3.222656 0.59375 -3.320312 0.332031 -3.5 -0.0625 C -3.675781 -0.457031 -3.785156 -0.796875 -3.828125 -1.078125 C -3.878906 -1.367188 -3.882812 -1.9375 -3.84375 -2.78125 C -3.75 -3.96875 -3.445312 -5.75 -2.9375 -8.125 C -2.4375 -10.507812 -1.785156 -13.191406 -0.984375 -16.171875 C -0.191406 -19.148438 0.6875 -22.179688 1.65625 -25.265625 C 2.625 -28.359375 3.570312 -31.179688 4.5 -33.734375 Z M 4.5 -33.734375"/></g></g></g><g fill-opacity="1" fill="#000000"><g transform="translate(181.935664, 291.755004)"><g><path d="M 8.203125 -24.9375 C 7.890625 -24.101562 7.523438 -23.113281 7.109375 -21.96875 C 6.691406 -20.820312 6.351562 -19.875 6.09375 -19.125 C 5.25 -16.914062 4.691406 -15.398438 4.421875 -14.578125 C 4.160156 -13.765625 4.097656 -13.382812 4.234375 -13.4375 C 4.316406 -13.476562 4.632812 -13.570312 5.1875 -13.71875 C 5.738281 -13.875 6.367188 -14.039062 7.078125 -14.21875 C 8.265625 -14.53125 9.085938 -14.765625 9.546875 -14.921875 C 10.015625 -15.078125 10.316406 -15.265625 10.453125 -15.484375 C 10.585938 -15.703125 10.71875 -16.050781 10.84375 -16.53125 C 10.9375 -16.976562 11.070312 -17.550781 11.25 -18.25 C 11.425781 -18.957031 11.6875 -20.003906 12.03125 -21.390625 C 12.382812 -22.785156 12.894531 -24.71875 13.5625 -27.1875 C 14.21875 -29.707031 14.800781 -32.023438 15.3125 -34.140625 C 15.820312 -36.253906 16.164062 -37.929688 16.34375 -39.171875 C 16.425781 -39.742188 16.519531 -40.28125 16.625 -40.78125 C 16.738281 -41.289062 16.820312 -41.613281 16.875 -41.75 C 16.957031 -42.101562 16.890625 -42.203125 16.671875 -42.046875 C 16.453125 -41.890625 16.035156 -41.414062 15.421875 -40.625 C 14.753906 -39.820312 14.1875 -39.066406 13.71875 -38.359375 C 13.257812 -37.660156 12.796875 -36.800781 12.328125 -35.78125 C 11.867188 -34.769531 11.316406 -33.414062 10.671875 -31.71875 C 10.035156 -30.019531 9.210938 -27.757812 8.203125 -24.9375 Z M -6.28125 -2.90625 C -6.320312 -2.90625 -6.441406 -2.859375 -6.640625 -2.765625 C -6.847656 -2.679688 -7.101562 -2.597656 -7.40625 -2.515625 C -8.863281 -1.984375 -9.835938 -2.160156 -10.328125 -3.046875 C -11.160156 -4.671875 -9.484375 -6.765625 -5.296875 -9.328125 L -3.4375 -10.390625 L -2.453125 -12.765625 C -2.140625 -13.429688 -1.660156 -14.523438 -1.015625 -16.046875 C -0.378906 -17.566406 0.222656 -19.078125 0.796875 -20.578125 C 1.804688 -23.128906 2.6875 -25.285156 3.4375 -27.046875 C 4.1875 -28.816406 4.878906 -30.375 5.515625 -31.71875 C 6.160156 -33.0625 6.789062 -34.351562 7.40625 -35.59375 C 8.90625 -38.5 10.445312 -41.007812 12.03125 -43.125 C 13.625 -45.25 14.992188 -46.617188 16.140625 -47.234375 C 17.554688 -47.984375 18.835938 -48.023438 19.984375 -47.359375 C 21.128906 -46.703125 21.851562 -45.492188 22.15625 -43.734375 C 22.332031 -42.804688 22.3125 -41.445312 22.09375 -39.65625 C 21.875 -37.875 21.453125 -35.484375 20.828125 -32.484375 C 20.210938 -29.484375 19.332031 -25.691406 18.1875 -21.109375 C 17.882812 -19.867188 17.617188 -18.796875 17.390625 -17.890625 C 17.171875 -16.984375 17.0625 -16.488281 17.0625 -16.40625 C 17.019531 -16.226562 17.039062 -16.09375 17.125 -16 C 17.21875 -15.914062 17.484375 -15.832031 17.921875 -15.75 C 18.804688 -15.613281 19.25 -15.0625 19.25 -14.09375 C 19.25 -13.125 18.476562 -12.238281 16.9375 -11.4375 C 16.625 -11.269531 16.347656 -11.109375 16.109375 -10.953125 C 15.867188 -10.796875 15.722656 -10.695312 15.671875 -10.65625 C 15.628906 -10.601562 15.539062 -10.3125 15.40625 -9.78125 C 15.28125 -9.257812 15.109375 -8.644531 14.890625 -7.9375 C 14.179688 -5.25 13.539062 -3.207031 12.96875 -1.8125 C 12.394531 -0.425781 11.820312 0.441406 11.25 0.796875 C 10.632812 1.148438 10.015625 1.226562 9.390625 1.03125 C 8.773438 0.832031 8.335938 0.421875 8.078125 -0.203125 C 7.941406 -0.460938 7.875 -0.976562 7.875 -1.75 C 7.875 -2.519531 7.914062 -3.367188 8 -4.296875 C 8.09375 -5.222656 8.226562 -5.992188 8.40625 -6.609375 C 8.488281 -7.054688 8.5625 -7.421875 8.625 -7.703125 C 8.695312 -7.992188 8.710938 -8.140625 8.671875 -8.140625 C 8.617188 -8.140625 8.226562 -8.023438 7.5 -7.796875 C 6.78125 -7.578125 5.910156 -7.296875 4.890625 -6.953125 C 3.785156 -6.597656 2.898438 -6.273438 2.234375 -5.984375 C 1.578125 -5.703125 1.207031 -5.515625 1.125 -5.421875 C 1.082031 -5.378906 0.914062 -4.9375 0.625 -4.09375 C 0.34375 -3.257812 0.00390625 -2.289062 -0.390625 -1.1875 C -0.960938 0.488281 -1.414062 1.753906 -1.75 2.609375 C -2.082031 3.472656 -2.347656 4.09375 -2.546875 4.46875 C -2.742188 4.84375 -2.972656 5.160156 -3.234375 5.421875 C -3.640625 5.773438 -4.113281 5.992188 -4.65625 6.078125 C -5.207031 6.171875 -5.6875 6.109375 -6.09375 5.890625 C -6.75 5.535156 -7.128906 5.035156 -7.234375 4.390625 C -7.347656 3.753906 -7.253906 2.707031 -6.953125 1.25 C -6.679688 -0.0195312 -6.476562 -1.03125 -6.34375 -1.78125 C -6.21875 -2.53125 -6.195312 -2.90625 -6.28125 -2.90625 Z M -6.28125 -2.90625"/></g></g></g><g fill-opacity="1" fill="#000000"><g transform="translate(201.8475, 291.755004)"><g><path d="M 33.203125 -40.953125 C 32.679688 -39.847656 32.046875 -38.457031 31.296875 -36.78125 C 30.546875 -35.101562 29.757812 -33.378906 28.9375 -31.609375 C 28.125 -29.847656 27.40625 -28.265625 26.78125 -26.859375 C 26.164062 -25.453125 25.726562 -24.4375 25.46875 -23.8125 C 25.332031 -23.550781 25.007812 -22.832031 24.5 -21.65625 C 24 -20.488281 23.460938 -19.222656 22.890625 -17.859375 C 20.460938 -12.304688 18.398438 -7.617188 16.703125 -3.796875 C 15.003906 0.015625 13.59375 3.097656 12.46875 5.453125 C 11.34375 7.816406 10.425781 9.59375 9.71875 10.78125 C 9.019531 11.96875 8.445312 12.765625 8 13.171875 C 7.207031 13.867188 6.414062 14.085938 5.625 13.828125 C 4.78125 13.515625 4.300781 13.015625 4.1875 12.328125 C 4.082031 11.648438 4.296875 10.691406 4.828125 9.453125 C 5.046875 8.972656 5.242188 8.5 5.421875 8.03125 C 5.597656 7.570312 5.734375 7.234375 5.828125 7.015625 C 6.046875 6.398438 6.472656 5.128906 7.109375 3.203125 C 7.753906 1.285156 8.453125 -0.796875 9.203125 -3.046875 C 9.546875 -4.191406 9.992188 -5.535156 10.546875 -7.078125 C 11.097656 -8.617188 11.53125 -9.898438 11.84375 -10.921875 C 12.726562 -13.390625 13.378906 -15.25 13.796875 -16.5 C 14.210938 -17.757812 14.5 -18.609375 14.65625 -19.046875 C 14.8125 -19.492188 14.890625 -19.71875 14.890625 -19.71875 C 14.890625 -19.71875 14.703125 -19.640625 14.328125 -19.484375 C 13.953125 -19.328125 13.5 -19.140625 12.96875 -18.921875 C 12.125 -18.609375 11.484375 -18.394531 11.046875 -18.28125 C 10.609375 -18.175781 9.992188 -18.101562 9.203125 -18.0625 C 6.421875 -17.882812 4.191406 -18.785156 2.515625 -20.765625 C 0.304688 -23.503906 -0.285156 -27.210938 0.734375 -31.890625 C 0.953125 -32.898438 1.347656 -34.117188 1.921875 -35.546875 C 2.492188 -36.984375 3.144531 -38.394531 3.875 -39.78125 C 4.601562 -41.175781 5.273438 -42.316406 5.890625 -43.203125 C 6.503906 -44.035156 7.207031 -44.570312 8 -44.8125 C 8.800781 -45.0625 9.550781 -45.03125 10.25 -44.71875 C 10.957031 -44.414062 11.421875 -43.820312 11.640625 -42.9375 C 11.734375 -42.5 11.664062 -41.679688 11.4375 -40.484375 C 11.351562 -40.003906 11.265625 -39.488281 11.171875 -38.9375 C 11.085938 -38.382812 11.023438 -37.972656 10.984375 -37.703125 C 10.941406 -37.128906 10.804688 -36.6875 10.578125 -36.375 C 10.359375 -36.070312 10.140625 -36.050781 9.921875 -36.3125 C 9.785156 -36.539062 9.648438 -36.554688 9.515625 -36.359375 C 9.390625 -36.160156 9.171875 -35.6875 8.859375 -34.9375 C 8.203125 -33.257812 7.773438 -31.59375 7.578125 -29.9375 C 7.378906 -28.28125 7.429688 -27.035156 7.734375 -26.203125 C 7.910156 -25.890625 8.039062 -25.6875 8.125 -25.59375 C 8.21875 -25.507812 8.488281 -25.46875 8.9375 -25.46875 C 9.8125 -25.46875 10.988281 -25.992188 12.46875 -27.046875 C 13.945312 -28.109375 15.367188 -29.4375 16.734375 -31.03125 C 18.328125 -32.925781 19.648438 -34.710938 20.703125 -36.390625 C 21.765625 -38.066406 22.78125 -39.984375 23.75 -42.140625 C 24.414062 -43.640625 25.046875 -44.960938 25.640625 -46.109375 C 26.234375 -47.253906 26.816406 -48.222656 27.390625 -49.015625 C 28.097656 -50.078125 28.9375 -50.773438 29.90625 -51.109375 C 30.875 -51.441406 31.8125 -51.472656 32.71875 -51.203125 C 33.625 -50.941406 34.347656 -50.410156 34.890625 -49.609375 C 35.441406 -48.816406 35.65625 -47.828125 35.53125 -46.640625 C 35.476562 -46.378906 35.242188 -45.726562 34.828125 -44.6875 C 34.410156 -43.65625 33.867188 -42.410156 33.203125 -40.953125 Z M 33.203125 -40.953125"/></g></g></g></svg>